<?xml version="1.0" encoding="utf-8"?>
<svg id="master-artboard" viewBox="0 0 351 472" version="1.1" xmlns="http://www.w3.org/2000/svg" x="0px" y="0px" style="enable-background:new 0 0 1400 980;" width="351px" height="472px"><rect id="ee-background" x="0" y="0" width="351" height="472" style="fill: white; fill-opacity: 0; pointer-events: none;"/><g transform="matrix(1, 0, 0, 1, 0.00001111976416723337, 0)"><mask id="path-1-inside-1_19_40761" fill="white">
<path fill-rule="evenodd" clip-rule="evenodd" d="M3.51891 67.418C1.26591 69.6688 0 72.7229 0 75.9075V460C0 466.627 5.37258 472 12 472H265.704C268.885 472 271.935 470.737 274.185 468.489L347.481 395.266C349.734 393.015 351 389.961 351 386.777V12C351 5.37258 345.627 0 339 0H75.9706C72.79 0 69.7395 1.26266 67.4894 3.51054L3.51891 67.418Z"/>
</mask><path d="M347.481 395.266L344.654 392.436L347.481 395.266ZM274.185 468.489L277.012 471.319L274.185 468.489ZM3.51891 67.418L0.691874 64.5882L3.51891 67.418ZM-4 75.9075V460H4V75.9075H-4ZM12 476H265.704V468H12V476ZM277.012 471.319L350.308 398.096L344.654 392.436L271.358 465.66L277.012 471.319ZM355 386.777V12H347V386.777H355ZM339 -4H75.9706V4H339V-4ZM64.6624 0.680715L0.691874 64.5882L6.34594 70.2479L70.3165 6.34036L64.6624 0.680715ZM75.9706 -4C71.7298 -4 67.6625 -2.31646 64.6624 0.680715L70.3165 6.34036C71.8165 4.84177 73.8502 4 75.9706 4V-4ZM355 12C355 3.16344 347.837 -4 339 -4V4C343.418 4 347 7.58172 347 12H355ZM350.308 398.096C353.312 395.095 355 391.023 355 386.777H347C347 388.9 346.156 390.936 344.654 392.436L350.308 398.096ZM265.704 476C269.945 476 274.012 474.316 277.012 471.319L271.358 465.66C269.858 467.158 267.825 468 265.704 468V476ZM-4 460C-4 468.837 3.16344 476 12 476V468C7.58172 468 4 464.418 4 460H-4ZM4 75.9075C4 73.7844 4.84394 71.7484 6.34594 70.2479L0.691874 64.5882C-2.31212 67.5892 -4 71.6613 -4 75.9075H4Z" fill="white" mask="url(#path-1-inside-1_19_40761)"/></g></svg>