<svg width="222" height="112" viewBox="0 0 222 112" fill="none" xmlns="http://www.w3.org/2000/svg">
<g filter="url(#filter0_d_119_21868)">
<path d="M88.0188 55.4178H74.5934V37.462H102V41.3475C102 49.1185 95.7114 55.4178 88.0188 55.4178ZM77.2259 52.7686H88.0188C94.2782 52.7686 99.3676 47.6468 99.3676 41.3475V40.1112H77.2259V52.7686Z" fill="#03272B"/>
<path d="M88.0188 54.0932H75.9096V38.7866H100.684V41.3475C100.684 48.4121 95.0094 54.0932 88.0188 54.0932Z" fill="url(#paint0_linear_119_21868)"/>
<path d="M87.1999 41.5535C87.2292 41.2591 87.2292 40.9648 87.2584 40.6999C87.3169 39.4341 87.3461 38.139 87.2584 36.8732C87.0537 34.0768 86.4394 31.3098 85.445 28.6901C85.211 28.0719 84.9477 27.4243 84.6552 26.8356C84.4505 26.3941 84.1287 26.0408 83.807 25.6876C83.7777 25.6582 83.7192 25.5993 83.69 25.5699L72.5168 33.0466L80.9406 45.7923L87.1999 41.5535Z" fill="url(#paint1_linear_119_21868)"/>
<path d="M91.0315 38.9926L80.9405 45.7628L72.5168 33.0171L93.1375 19.1823L94.5415 21.3017C98.4316 27.1889 96.8521 35.0776 91.0315 38.9926Z" fill="url(#paint2_linear_119_21868)"/>
<path d="M80.5603 47.5879L70.674 32.6345L93.4885 17.3573L95.6237 20.5952C99.894 27.0417 98.1391 35.8136 91.7335 40.1112L80.5603 47.5879ZM74.3302 33.3704L81.2915 43.9084L90.271 37.8741C95.4774 34.3712 96.8814 27.2772 93.43 22.0376L92.7572 21.0073L74.3302 33.3704Z" fill="#03272B"/>
<path d="M72.1363 72.5156C85.592 58.9742 85.592 37.0191 72.1363 23.4777C58.6807 9.93622 36.8648 9.93622 23.4092 23.4777C9.95355 37.0191 9.95355 58.9742 23.4092 72.5156C36.8648 86.0571 58.6807 86.0571 72.1363 72.5156Z" fill="url(#paint3_linear_119_21868)"/>
<path d="M47.7719 84C28.0578 84 12 67.8397 12 48C12 28.1603 28.0578 12 47.7719 12C67.4859 12 83.5437 28.1603 83.5437 48C83.5437 67.8397 67.4859 84 47.7719 84ZM47.7719 14.6492C29.4911 14.6492 14.6324 29.6026 14.6324 48C14.6324 66.3974 29.4911 81.3508 47.7719 81.3508C66.0527 81.3508 80.9113 66.3974 80.9113 48C80.9113 29.6026 66.0527 14.6492 47.7719 14.6492Z" fill="#03272B"/>
<path d="M78.8346 47.7056C78.8931 50.2077 78.6298 52.7392 78.1033 55.0646C75.4416 66.5151 65.9649 75.6991 54.5869 78.2306C53.6509 78.4366 52.715 78.6133 51.779 78.731C42.6532 79.8496 33.352 76.6999 26.6831 70.3124C19.0783 63.0417 13.5502 49.3246 18.7858 39.2576C21.506 34.0474 26.5954 30.2796 32.5622 30.2796C35.6626 30.2796 38.5291 31.1921 40.9568 32.7228C45.3149 35.4898 50.8723 35.4898 55.2012 32.7228C57.6288 31.1627 60.4953 30.2796 63.5957 30.2796C65.2337 30.2796 66.8131 30.5446 68.2756 30.9861C75.6756 33.341 78.6591 40.4939 78.8346 47.7056Z" fill="url(#paint4_linear_119_21868)"/>
<path d="M48.1228 80.2911C39.933 80.2911 31.7725 77.0531 25.7471 71.2837C17.4696 63.3949 12.1755 49.0302 17.5866 38.6394C20.7163 32.6639 26.4199 28.955 32.533 28.955C35.7796 28.955 38.9093 29.8675 41.6295 31.6042C45.5197 34.1063 50.5798 34.1063 54.4699 31.6042C57.1901 29.8675 60.3198 28.955 63.5665 28.955C65.2922 28.955 67.0179 29.2199 68.6558 29.7203C75.7341 31.9575 79.9168 38.4922 80.1508 47.6468C80.2093 50.2077 79.946 52.8569 79.3611 55.3589C76.6409 67.1627 66.7839 76.8765 54.8502 79.5257C53.8849 79.7318 52.8905 79.9084 51.896 80.0262C50.6675 80.2028 49.3806 80.2911 48.1228 80.2911ZM32.533 31.6042C27.4144 31.6042 22.5882 34.7833 19.9265 39.8757C15.1004 49.148 20.0143 62.1586 27.5606 69.3704C33.9662 75.493 42.9457 78.4955 51.6035 77.4358C52.5102 77.3181 53.417 77.1709 54.2944 76.9648C65.2629 74.5217 74.3009 65.6026 76.8164 54.7702C77.3429 52.5037 77.5769 50.0605 77.5184 47.7351C77.4306 43.9673 76.2899 34.9011 67.8661 32.2518C66.4914 31.8103 65.0289 31.6042 63.5665 31.6042C60.8463 31.6042 58.1846 32.3696 55.8739 33.8414C51.1063 36.8733 44.9639 36.8733 40.2255 33.8414C37.9148 32.399 35.2824 31.6042 32.533 31.6042Z" fill="#03272B"/>
<path d="M69.1823 63.866C68.1586 64.5135 66.9594 64.9845 65.8186 65.3377C64.6194 65.7204 63.3909 65.9559 62.1332 66.0442C59.5885 66.2208 57.0439 65.7499 54.7039 64.7785C52.364 63.7777 50.5505 62.2764 47.8596 62.3059C45.2857 62.3353 43.5599 63.8071 41.2785 64.7785C38.9386 65.7793 36.3939 66.2503 33.8492 66.0442C32.5915 65.9559 31.363 65.7204 30.1638 65.3377C28.9938 64.9845 27.8238 64.5135 26.8001 63.866C24.9282 62.6885 23.4657 60.9812 22.0325 59.3034C23.6704 62.8357 25.9519 66.0442 28.4673 68.4579C33.3812 73.1677 39.9038 75.9346 46.6019 76.2879C46.9821 76.3173 47.3331 76.3173 47.7133 76.3173C47.8011 76.3173 47.8596 76.3173 47.9473 76.3173C48.0351 76.3173 48.0936 76.3173 48.1813 76.3173C48.5616 76.3173 48.9126 76.3173 49.2928 76.2879C55.9909 75.9346 62.5135 73.1677 67.4273 68.4579C69.972 66.0442 72.2242 62.8357 73.8622 59.3034C72.5167 60.9812 71.0543 62.6885 69.1823 63.866Z" fill="#2C6B74"/>
<g opacity="0.4">
<path d="M24.3432 29.8381C25.5132 29.1022 26.8001 28.6018 28.1163 28.1897C29.4618 27.7776 30.8365 27.5127 32.2405 27.3949C35.0777 27.1889 37.9149 27.7187 40.518 28.8078C43.1212 29.9264 45.1687 31.6042 48.1521 31.5454C51.0478 31.5159 52.9782 29.8675 55.4937 28.8078C58.0969 27.6893 60.9633 27.1889 63.7712 27.3949C65.1752 27.5127 66.5499 27.7776 67.8954 28.1897C69.1823 28.6018 70.4986 29.1022 71.6685 29.8381C73.7452 31.1627 75.3832 33.076 76.9919 34.9305C75.1492 30.9861 72.6045 27.3949 69.7966 24.6868C64.2977 19.4178 57.0146 16.327 49.5268 15.9444C49.1173 15.9149 48.7078 15.9149 48.2983 15.9149C48.2106 15.9149 48.1229 15.9149 48.0351 15.9149C47.9474 15.9149 47.8596 15.9149 47.7719 15.9149C47.3624 15.9149 46.9529 15.9149 46.5434 15.9444C39.0556 16.327 31.7725 19.4178 26.2736 24.6868C23.4072 27.3949 20.8625 30.9861 19.0198 34.9305C20.6285 33.076 22.2665 31.1333 24.3432 29.8381Z" fill="#2C6B74"/>
</g>
<path d="M61.0803 36.8732C58.4186 36.726 55.9032 37.4031 53.7972 38.6982C50.0533 40.9354 45.4612 40.9354 41.7173 38.6982C39.6113 37.4325 37.0959 36.7555 34.4342 36.8732C27.7946 37.197 22.442 42.6721 22.1787 49.3834C21.8863 56.8013 27.7946 62.9239 35.1069 62.9239C37.5346 62.9239 39.7868 62.2469 41.7173 61.0989C45.4612 58.8618 50.0533 58.8618 53.7972 61.0989C55.7277 62.2469 58.0091 62.9239 60.4075 62.9239C67.7199 62.9239 73.6282 56.8307 73.3357 49.3834C73.1017 42.6721 67.7199 37.197 61.0803 36.8732Z" fill="white"/>
<path d="M60.4075 64.2191C57.8336 64.2191 55.3182 63.5127 53.1245 62.2175C49.8193 60.2453 45.6951 60.2453 42.39 62.2175C40.1963 63.5421 37.6808 64.2485 35.1069 64.2485C31.1875 64.2485 27.5606 62.6884 24.8404 59.8626C22.1202 57.0368 20.7163 53.2984 20.8625 49.354C21.155 41.9951 27.0634 35.9607 34.3757 35.5781C37.2129 35.4309 39.9915 36.1373 42.4192 37.5797C45.7244 39.5519 49.8193 39.5519 53.1245 37.5797C55.5522 36.1373 58.3308 35.4309 61.168 35.5781C68.4511 35.9607 74.3887 41.9951 74.6812 49.354C74.8274 53.2984 73.4235 57.0368 70.7033 59.8626C67.9831 62.659 64.3269 64.2191 60.4075 64.2191ZM47.7718 58.067C50.0825 58.067 52.4225 58.6852 54.4699 59.9215C56.2541 60.9812 58.3016 61.5699 60.4075 61.5699C63.5957 61.5699 66.5791 60.3041 68.7728 57.9787C70.9958 55.6533 72.1365 52.6214 72.0195 49.4129C71.8147 43.4374 66.9886 38.4922 61.0218 38.1979C58.7111 38.0801 56.4296 38.6394 54.4699 39.8168C50.3458 42.2894 45.1979 42.2894 41.0445 39.8168C39.0848 38.6394 36.8034 38.0801 34.4927 38.1979C28.5551 38.4922 23.6997 43.4374 23.4949 49.4129C23.378 52.6214 24.5187 55.6827 26.7416 57.9787C28.9646 60.3041 31.9187 61.5699 35.1069 61.5699C37.2129 61.5699 39.2603 61.0106 41.0445 59.9215C43.1212 58.6852 45.4612 58.067 47.7718 58.067Z" fill="#03272B"/>
<path d="M29.4033 47.4701C29.4033 47.4701 35.5457 47.7939 37.2421 47.7939C38.9386 47.7939 40.2841 49.1774 40.2841 50.8552C40.2841 52.5331 38.9093 53.9166 37.2421 53.9166C30.8365 53.9166 29.4033 49.148 29.4033 47.4701Z" fill="#00E0FF"/>
<path d="M37.2421 55.2412C29.7836 55.2412 28.0871 49.4718 28.0871 47.4702V46.0867L29.4618 46.1455C29.5203 46.1455 35.6042 46.4693 37.2129 46.4693C39.6113 46.4693 41.571 48.4415 41.571 50.8553C41.571 53.269 39.6406 55.2412 37.2421 55.2412ZM31.012 48.8831C31.5385 50.4137 33.0595 52.592 37.2129 52.592C38.1781 52.592 38.9386 51.8266 38.9386 50.8553C38.9386 49.8839 38.1781 49.1186 37.2129 49.1186C36.0721 49.1186 32.9717 48.9714 31.012 48.8831Z" fill="#03272B"/>
<path d="M66.1404 47.4701C66.1404 47.4701 59.998 47.7939 58.3016 47.7939C56.6344 47.7939 55.2596 49.1774 55.2596 50.8552C55.2596 52.5331 56.6344 53.9166 58.3016 53.9166C64.7072 53.9166 66.1404 49.148 66.1404 47.4701Z" fill="#00E0FF"/>
<path d="M58.3016 55.2412C55.9032 55.2412 53.9435 53.269 53.9435 50.8553C53.9435 48.4415 55.9032 46.4693 58.3016 46.4693C59.9396 46.4693 65.9942 46.1455 66.0527 46.1455L67.4274 46.0867V47.4702C67.4566 49.4718 65.7602 55.2412 58.3016 55.2412ZM64.5317 48.8831C62.572 48.9714 59.4716 49.1186 58.3308 49.1186C57.3656 49.1186 56.6051 49.8839 56.6051 50.8553C56.6051 51.8266 57.3656 52.592 58.3308 52.592C62.4842 52.592 63.976 50.3843 64.5317 48.8831Z" fill="#03272B"/>
</g>
<g filter="url(#filter1_d_119_21868)">
<path d="M134.732 61H128.576L118.28 45.376V61H112.124V35.548H118.28L128.576 51.316V35.548H134.732V61ZM145.139 35.548V61H138.983V35.548H145.139ZM171.998 61H165.842L155.546 45.376V61H149.39V35.548H155.546L165.842 51.316V35.548H171.998V61ZM191.945 35.548V52.936C191.945 55.6 191.213 57.652 189.749 59.092C188.309 60.532 186.305 61.252 183.737 61.252C180.953 61.252 178.745 60.472 177.113 58.912C175.481 57.328 174.665 55.06 174.665 52.108H180.749C180.749 54.484 181.649 55.672 183.449 55.672C185.009 55.672 185.789 54.76 185.789 52.936V35.548H191.945ZM211.775 56.356H202.235L200.651 61H194.171L203.495 35.728H210.587L219.911 61H213.359L211.775 56.356ZM210.191 51.676L207.023 42.316L203.819 51.676H210.191Z" fill="white"/>
</g>
<defs>
<filter id="filter0_d_119_21868" x="0" y="0" width="130" height="112" filterUnits="userSpaceOnUse" color-interpolation-filters="sRGB">
<feFlood flood-opacity="0" result="BackgroundImageFix"/>
<feColorMatrix in="SourceAlpha" type="matrix" values="0 0 0 0 0 0 0 0 0 0 0 0 0 0 0 0 0 0 127 0" result="hardAlpha"/>
<feOffset dx="8" dy="8"/>
<feGaussianBlur stdDeviation="10"/>
<feColorMatrix type="matrix" values="0 0 0 0 0 0 0 0 0 0.508758 0 0 0 0 0.579167 0 0 0 0.15 0"/>
<feBlend mode="normal" in2="BackgroundImageFix" result="effect1_dropShadow_119_21868"/>
<feBlend mode="normal" in="SourceGraphic" in2="effect1_dropShadow_119_21868" result="shape"/>
</filter>
<filter id="filter1_d_119_21868" x="110.124" y="34.548" width="111.787" height="29.704" filterUnits="userSpaceOnUse" color-interpolation-filters="sRGB">
<feFlood flood-opacity="0" result="BackgroundImageFix"/>
<feColorMatrix in="SourceAlpha" type="matrix" values="0 0 0 0 0 0 0 0 0 0 0 0 0 0 0 0 0 0 127 0" result="hardAlpha"/>
<feOffset dy="1"/>
<feGaussianBlur stdDeviation="1"/>
<feComposite in2="hardAlpha" operator="out"/>
<feColorMatrix type="matrix" values="0 0 0 0 0.0117647 0 0 0 0 0.152941 0 0 0 0 0.168627 0 0 0 1 0"/>
<feBlend mode="normal" in2="BackgroundImageFix" result="effect1_dropShadow_119_21868"/>
<feBlend mode="normal" in="SourceGraphic" in2="effect1_dropShadow_119_21868" result="shape"/>
</filter>
<linearGradient id="paint0_linear_119_21868" x1="88.2967" y1="38.7866" x2="88.2967" y2="54.0932" gradientUnits="userSpaceOnUse">
<stop stop-color="#00BED8"/>
<stop offset="1" stop-color="#008294"/>
</linearGradient>
<linearGradient id="paint1_linear_119_21868" x1="79.9153" y1="25.5699" x2="79.9153" y2="45.7923" gradientUnits="userSpaceOnUse">
<stop stop-color="#00BED8"/>
<stop offset="1" stop-color="#008294"/>
</linearGradient>
<linearGradient id="paint2_linear_119_21868" x1="84.5961" y1="19.1823" x2="84.5961" y2="45.7628" gradientUnits="userSpaceOnUse">
<stop stop-color="#00BED8"/>
<stop offset="1" stop-color="#008294"/>
</linearGradient>
<linearGradient id="paint3_linear_119_21868" x1="23.4092" y1="23.4777" x2="72.4461" y2="72.2038" gradientUnits="userSpaceOnUse">
<stop stop-color="#00BED8"/>
<stop offset="1" stop-color="#008294"/>
</linearGradient>
<linearGradient id="paint4_linear_119_21868" x1="47.7852" y1="30.2796" x2="47.7852" y2="78.9532" gradientUnits="userSpaceOnUse">
<stop stop-color="#00BED8"/>
<stop offset="1" stop-color="#008294"/>
</linearGradient>
</defs>
</svg>
